<svg xmlns="http://www.w3.org/2000/svg" viewBox="0 0 87 131" fill="black">
  <path d="M 42 4 L 41 5 L 41 8 L 40 9 L 39 8 L 35 8 L 35 9 L 34 10 L 34 11 L 35 12 L 35 13 L 37 15 L 38 15 L 39 16 L 40 16 L 41 17 L 41 19 L 40 20 L 34 20 L 33 19 L 17 19 L 16 20 L 14 20 L 13 21 L 12 21 L 11 22 L 10 22 L 9 23 L 8 23 L 8 24 L 7 25 L 7 26 L 6 27 L 6 31 L 7 32 L 7 33 L 8 34 L 8 36 L 9 37 L 9 38 L 11 40 L 11 41 L 12 42 L 12 43 L 13 44 L 13 45 L 14 46 L 14 47 L 15 48 L 15 49 L 16 50 L 16 51 L 17 52 L 17 53 L 18 54 L 18 56 L 19 57 L 19 58 L 21 60 L 21 62 L 22 63 L 22 65 L 23 66 L 23 67 L 24 68 L 24 70 L 25 71 L 25 74 L 26 75 L 26 77 L 27 78 L 27 79 L 28 80 L 28 81 L 29 82 L 29 85 L 30 86 L 30 88 L 31 89 L 31 90 L 32 91 L 32 93 L 33 94 L 33 95 L 34 96 L 34 98 L 35 99 L 35 101 L 36 102 L 36 103 L 37 104 L 37 107 L 38 108 L 38 110 L 39 111 L 39 112 L 40 113 L 40 116 L 41 117 L 41 119 L 42 120 L 42 121 L 43 122 L 43 123 L 44 124 L 44 125 L 48 125 L 49 124 L 49 123 L 50 122 L 50 121 L 51 120 L 51 118 L 52 117 L 52 116 L 54 114 L 54 112 L 55 111 L 55 109 L 57 107 L 57 105 L 58 104 L 58 103 L 59 102 L 59 100 L 60 99 L 60 96 L 61 95 L 61 92 L 63 90 L 63 88 L 64 87 L 64 85 L 65 84 L 65 81 L 66 80 L 66 78 L 67 77 L 67 75 L 68 74 L 68 73 L 69 72 L 69 69 L 70 68 L 70 67 L 71 66 L 71 62 L 72 61 L 72 59 L 73 58 L 73 55 L 74 54 L 74 51 L 75 50 L 75 48 L 76 47 L 76 45 L 78 43 L 78 42 L 79 41 L 80 41 L 80 32 L 79 31 L 79 29 L 78 28 L 77 28 L 75 26 L 73 26 L 72 25 L 70 25 L 69 24 L 66 24 L 65 23 L 61 23 L 60 22 L 54 22 L 53 21 L 47 21 L 46 20 L 46 5 L 45 4 Z " fill="black"/>
</svg>